<svg xmlns="http://www.w3.org/2000/svg" viewBox="0 0 415.43 163.05"><defs><style>.cls-1,.cls-2{fill:#fff;}.cls-2{fill-rule:evenodd;}</style></defs><title>Fichier 1</title><g id="Calque_2" data-name="Calque 2"><g id="Calque_1-2" data-name="Calque 1"><path class="cls-1" d="M1.25,155.49l4.53-1.24V130.62a5.76,5.76,0,0,0-.25-2.13,2.31,2.31,0,0,0-1.3-1L1,125.73l.37-5q4.71-.74,8.93-1.08c2.81-.23,5.82-.34,9-.34a33.35,33.35,0,0,1,10.76,1.42,11,11,0,0,1,5.95,4.47A15.1,15.1,0,0,1,38,133.23a12.35,12.35,0,0,1-4.68,10.23q-4.68,3.72-12.81,3.72l-3.41-.13v4.72a5.34,5.34,0,0,0,.22,1.92,2.39,2.39,0,0,0,1.09.87l3.78,2.23-.25,5H1.56Zm24.68-15.88a29.29,29.29,0,0,0,.68-6.38q0-3.66-1.39-5.21t-4.5-1.55c-.7,0-1.92.08-3.66.25v13.2a18.37,18.37,0,0,0,4,.38A12.85,12.85,0,0,0,25.93,139.61Z"/><path class="cls-1" d="M56.19,160.29a7.72,7.72,0,0,1-2.55-6q0-4.91,4.93-7.69t14.36-3.16a14.66,14.66,0,0,0-.47-4.31,3,3,0,0,0-1.67-1.92,9.79,9.79,0,0,0-3.69-.53,22.76,22.76,0,0,0-3.6.19l-2.54,5-4.59-.31a81.94,81.94,0,0,1-1.49-10.29,51.66,51.66,0,0,1,15.32-2.55q6.57,0,9.42,2.58t2.85,8.52v13a3.92,3.92,0,0,0,.22,1.55,2.37,2.37,0,0,0,1,.87l2.48,1.42-.25,3.85a67.53,67.53,0,0,1-11.34,1.86c-.09-.25-.21-.69-.37-1.33s-.31-1.25-.44-1.83a22.79,22.79,0,0,1-5.3,2.48,17.87,17.87,0,0,1-5.49.93A9.6,9.6,0,0,1,56.19,160.29Zm16.92-6.35-.25-4.72q-1.48-.12-2-.12a26,26,0,0,0-3.91.34,22.61,22.61,0,0,0-3.53.78,6.82,6.82,0,0,0-.19,1.48,3.88,3.88,0,0,0,1,2.89,3.81,3.81,0,0,0,2.82,1A14.67,14.67,0,0,0,73.11,153.94Z"/><path class="cls-1" d="M100.82,155.92l3.79-1.12V139.74a5.28,5.28,0,0,0-.19-1.77,2.46,2.46,0,0,0-1-.9l-2.73-1.49.19-4.65a14.83,14.83,0,0,1,1.8-.31A73.71,73.71,0,0,1,113.78,129a33.12,33.12,0,0,1,1.06,4,30.13,30.13,0,0,1,6.32-4h3.53c0,1.57-.14,3.28-.31,5.12a34.85,34.85,0,0,1-.62,4.43c-1.48-.08-2.58-.13-3.28-.13a50.6,50.6,0,0,0-5.4.31v14.08a5.2,5.2,0,0,0,.19,1.73,2.48,2.48,0,0,0,1,.93l3.72,2-.25,4.4h-18.6Z"/><path class="cls-1" d="M139.51,156.11l4.34-1.31V139.74a4.65,4.65,0,0,0-.21-1.77,2.86,2.86,0,0,0-1.09-.9l-2.73-1.49.31-4.65q5.15-1,8-1.45a38.08,38.08,0,0,1,5.18-.53,30.43,30.43,0,0,1,1,4v19.84a4.94,4.94,0,0,0,.19,1.73,2.35,2.35,0,0,0,1,.93l3,1.74-.25,4.65H139.7Zm2.61-40.18,10.54-2.79,2.54,9.42-10.48,2.86Z"/><path class="cls-1" d="M173.61,161.13q.38-6.07.81-9l3.53-.68,3.91,4.15a15.88,15.88,0,0,0,4.59.62,10,10,0,0,0,2.23-.19,4.1,4.1,0,0,0,.18-1.36,2.11,2.11,0,0,0-.34-1.24,5,5,0,0,0-1.52-1.18c-.78-.45-2.15-1.15-4.09-2.11a36.43,36.43,0,0,1-5.58-3.44,10,10,0,0,1-2.76-3.13,8.31,8.31,0,0,1-.83-3.84,9.54,9.54,0,0,1,3.68-7.88q3.69-2.91,10-2.91a27.6,27.6,0,0,1,5.48.59,26.1,26.1,0,0,1,5.18,1.58,79.21,79.21,0,0,1-.56,9l-3.22.5-4.15-4.47a17.13,17.13,0,0,0-4.72-.49q-.49,0-2,.12a2.84,2.84,0,0,0-.19,1.18,2.46,2.46,0,0,0,.5,1.52,6.43,6.43,0,0,0,1.77,1.42c.84.52,2.2,1.25,4.06,2.2a46.9,46.9,0,0,1,6.17,3.45,9.57,9.57,0,0,1,2.91,2.94,7.21,7.21,0,0,1,.84,3.6,9.27,9.27,0,0,1-3.88,7.93q-3.87,2.85-10.69,2.85A44.23,44.23,0,0,1,173.61,161.13Z"/><path class="cls-1" d="M239.21,154.56c.66-.58,1.67-1.4,3-2.45l3.34-2.58q5.83-4.46,7.32-5.76a11.59,11.59,0,0,0,.31-2.61A3.85,3.85,0,0,0,252,138a6,6,0,0,0-3.81-1,56.56,56.56,0,0,0-7.69.62l-.31-2.42.74-6.26a38.49,38.49,0,0,1,9.43-1.18c3.76,0,6.74.83,9,2.48a8.06,8.06,0,0,1,3.31,6.82,13.79,13.79,0,0,1-2.29,7.88,36.06,36.06,0,0,1-7.56,7.56l-2.61,1.92,10.36-2.35h2.54l-.68,9.73h-23Z"/><path class="cls-1" d="M283.72,158.52c-2.81-3-4.21-7.44-4.21-13.26A16.65,16.65,0,0,1,288.9,130a22,22,0,0,1,10-2.23q8.25,0,12.5,4.53t4.24,13.39a16.38,16.38,0,0,1-2.48,9,17.06,17.06,0,0,1-6.91,6.17,22.08,22.08,0,0,1-10.08,2.23Q287.95,163.05,283.72,158.52Zm19.53-4.09a18.47,18.47,0,0,0,.81-3.62,35.14,35.14,0,0,0,.31-4.62q0-5.15-1.92-7.82a6.54,6.54,0,0,0-5.65-2.66,28.93,28.93,0,0,0-5,.56c-.66,1-1,3.7-1,8q0,5.34,1.95,8.22a6.32,6.32,0,0,0,5.55,2.88A13.37,13.37,0,0,0,303.25,154.43Z"/><path class="cls-1" d="M331.46,154.56c.66-.58,1.68-1.4,3-2.45l3.35-2.58q5.82-4.46,7.32-5.76a12.16,12.16,0,0,0,.3-2.61,3.88,3.88,0,0,0-1.2-3.16,6,6,0,0,0-3.82-1,56.68,56.68,0,0,0-7.69.62l-.3-2.42.74-6.26a38.47,38.47,0,0,1,9.42-1.18q5.64,0,9,2.48a8.07,8.07,0,0,1,3.32,6.82,13.8,13.8,0,0,1-2.3,7.88,35.82,35.82,0,0,1-7.56,7.56l-2.6,1.92,10.35-2.35h2.54l-.68,9.73h-23Z"/><path class="cls-1" d="M376,158.52c-2.81-3-4.22-7.44-4.22-13.26a16.64,16.64,0,0,1,9.4-15.26,22,22,0,0,1,10-2.23q8.25,0,12.49,4.53t4.25,13.39a16.47,16.47,0,0,1-2.48,9,17.12,17.12,0,0,1-6.91,6.17,22.11,22.11,0,0,1-10.08,2.23Q380.19,163.05,376,158.52Zm19.53-4.09a17.85,17.85,0,0,0,.8-3.62,33.51,33.51,0,0,0,.31-4.62q0-5.15-1.92-7.82a6.52,6.52,0,0,0-5.64-2.66,28.83,28.83,0,0,0-5,.56c-.66,1-1,3.7-1,8q0,5.34,1.95,8.22a6.31,6.31,0,0,0,5.55,2.88A13.41,13.41,0,0,0,395.51,154.43Z"/><polygon class="cls-2" points="137.23 0.32 146.19 26.72 171.23 14.38 158.86 39.37 185.3 48.31 158.87 57.26 171.23 82.26 146.2 69.91 137.23 96.32 128.28 69.92 103.24 82.26 115.61 57.27 89.17 48.31 115.6 39.38 103.24 14.38 128.27 26.72 137.23 0.32"/><path class="cls-1" d="M0,95V2.09H44.5q14.28,0,22.28,6.7t8,18.63A20.56,20.56,0,0,1,71,40.09a17.58,17.58,0,0,1-10.7,6.57q9.47,2,14.09,7.42T79,68.75q0,13-8.79,19.64T44.37,95ZM31.36,24.18v13h4.38a9.84,9.84,0,0,0,6.19-1.68,5.86,5.86,0,0,0,2.12-4.86,5.77,5.77,0,0,0-2.12-4.83,10,10,0,0,0-6.19-1.65Zm0,33V72.05h5.58q5,0,7.72-1.94a7,7,0,0,0,0-11q-2.7-1.91-7.72-1.91Z"/><path class="cls-1" d="M201.51,95V2.09h42q18.27,0,27.93,8.07t9.64,23.23q0,9.9-4.85,16.31a18.83,18.83,0,0,1-13.11,7.49L288,95H250.52L234.27,64.37V95Zm32.76-69V44.18h5.2q4.77,0,7.33-2.32a8.44,8.44,0,0,0,2.58-6.63,8.81,8.81,0,0,0-2.58-6.82Q244.24,26,239.47,26Z"/><path class="cls-1" d="M295.21,95V2.09h34V95Z"/><path class="cls-1" d="M338.75,87.09l10.67-26a68.76,68.76,0,0,0,12.79,7.34,27.68,27.68,0,0,0,10.5,2.31,9.69,9.69,0,0,0,5.4-1.3,4,4,0,0,0,2-3.52q0-3.87-9.83-5.9l-5-1.08q-10.41-2.55-15.93-9t-5.52-16.12q0-15,10.73-24.38T382.68,0a60.33,60.33,0,0,1,15.74,2.09A73.32,73.32,0,0,1,414,8.44L403.88,32.75a41.9,41.9,0,0,0-9.68-5.42,26.12,26.12,0,0,0-9.43-1.88,10.31,10.31,0,0,0-5.39,1.18,3.65,3.65,0,0,0-1.91,3.27q0,3.93,13.9,6.92c1.48.34,2.63.59,3.43.76a26.5,26.5,0,0,1,15.11,8.82,24.45,24.45,0,0,1,5.52,16.12q0,15.43-11.14,25.2t-29,9.78A66.72,66.72,0,0,1,357,94.9,83,83,0,0,1,338.75,87.09Z"/></g></g></svg>